<svg width="56" height="43" viewBox="0 0 56 43" fill="none" xmlns="http://www.w3.org/2000/svg">
<g filter="url(#filter0_dd_521_2726)">
<rect x="8" y="5" width="39.9568" height="25.7414" rx="4.6104" fill="white"/>
<rect x="7.90395" y="4.90395" width="40.1489" height="25.9335" rx="4.70645" stroke="#D6DCE5" stroke-width="0.1921"/>
<path d="M20.9238 14.5003C21.1904 14.1669 21.3713 13.7192 21.3236 13.2617C20.9334 13.2811 20.4572 13.5192 20.1815 13.8529C19.9339 14.1386 19.7148 14.6051 19.7719 15.0434C20.21 15.0814 20.6476 14.8244 20.9238 14.5003Z" fill="#000008"/>
<path d="M21.3186 15.129C20.6825 15.0911 20.1416 15.49 19.8378 15.49C19.5338 15.49 19.0686 15.148 18.5654 15.1573C17.9105 15.1669 17.3029 15.5372 16.9705 16.1261C16.287 17.3043 16.7901 19.0519 17.4549 20.0114C17.7777 20.4861 18.1667 21.0088 18.6793 20.99C19.1636 20.971 19.3535 20.6764 19.9422 20.6764C20.5305 20.6764 20.7015 20.99 21.2142 20.9805C21.7459 20.971 22.0783 20.5056 22.4011 20.0304C22.7714 19.4893 22.923 18.9667 22.9325 18.9381C22.923 18.9286 21.9073 18.5389 21.8979 17.3705C21.8883 16.3923 22.6953 15.9269 22.7333 15.8981C22.2776 15.2241 21.5655 15.148 21.3186 15.129Z" fill="#000008"/>
<path d="M26.8578 13.805C28.2404 13.805 29.2033 14.7581 29.2033 16.1457C29.2033 17.5383 28.2206 18.4964 26.8231 18.4964H25.2922V20.9309H24.1861V13.805L26.8578 13.805ZM25.2922 17.5679H26.5613C27.5243 17.5679 28.0724 17.0495 28.0724 16.1507C28.0724 15.252 27.5243 14.7384 26.5663 14.7384H25.2922V17.5679Z" fill="#000008"/>
<path d="M29.4922 19.4544C29.4922 18.5457 30.1885 17.9877 31.4232 17.9185L32.8453 17.8346V17.4347C32.8453 16.8569 32.4551 16.5112 31.8034 16.5112C31.186 16.5112 30.8008 16.8074 30.7071 17.2717H29.6997C29.7589 16.3334 30.5589 15.642 31.8429 15.642C33.1021 15.642 33.907 16.3087 33.907 17.3507V20.9309H32.8847V20.0766H32.8601C32.559 20.6544 31.9021 21.0198 31.2207 21.0198C30.2034 21.0198 29.4922 20.3877 29.4922 19.4544ZM32.8453 18.9853V18.5754L31.5662 18.6544C30.9292 18.6989 30.5688 18.9803 30.5688 19.4248C30.5688 19.879 30.9441 20.1754 31.5169 20.1754C32.2625 20.1754 32.8453 19.6618 32.8453 18.9853Z" fill="#000008"/>
<path d="M34.8721 22.842V21.9778C34.9509 21.9975 35.1287 21.9975 35.2176 21.9975C35.7114 21.9975 35.9781 21.7902 36.141 21.2568C36.141 21.2469 36.2349 20.9408 36.2349 20.9358L34.3585 15.7358H35.5139L36.8276 19.963H36.8472L38.1609 15.7358H39.2868L37.341 21.2025C36.8967 22.4618 36.3831 22.8667 35.3066 22.8667C35.2176 22.8667 34.9509 22.8568 34.8721 22.842Z" fill="#000008"/>
</g>
<defs>
<filter id="filter0_dd_521_2726" x="0.123617" y="0.966594" width="55.7088" height="41.493" filterUnits="userSpaceOnUse" color-interpolation-filters="sRGB">
<feFlood flood-opacity="0" result="BackgroundImageFix"/>
<feColorMatrix in="SourceAlpha" type="matrix" values="0 0 0 0 0 0 0 0 0 0 0 0 0 0 0 0 0 0 127 0" result="hardAlpha"/>
<feOffset dy="0.3842"/>
<feGaussianBlur stdDeviation="1.921"/>
<feColorMatrix type="matrix" values="0 0 0 0 0.717647 0 0 0 0 0.717647 0 0 0 0 0.717647 0 0 0 0.08 0"/>
<feBlend mode="normal" in2="BackgroundImageFix" result="effect1_dropShadow_521_2726"/>
<feColorMatrix in="SourceAlpha" type="matrix" values="0 0 0 0 0 0 0 0 0 0 0 0 0 0 0 0 0 0 127 0" result="hardAlpha"/>
<feOffset dy="3.842"/>
<feGaussianBlur stdDeviation="3.842"/>
<feColorMatrix type="matrix" values="0 0 0 0 0.717647 0 0 0 0 0.717647 0 0 0 0 0.717647 0 0 0 0.08 0"/>
<feBlend mode="normal" in2="effect1_dropShadow_521_2726" result="effect2_dropShadow_521_2726"/>
<feBlend mode="normal" in="SourceGraphic" in2="effect2_dropShadow_521_2726" result="shape"/>
</filter>
</defs>
</svg>
