<svg width="66" height="49" viewBox="0 0 66 49" fill="none" xmlns="http://www.w3.org/2000/svg">
<g filter="url(#filter0_dd_521_2724)">
<rect x="10" y="5" width="46.6143" height="30.0304" rx="5.37857" fill="white"/>
<rect x="9.88795" y="4.88795" width="46.8384" height="30.2545" rx="5.49062" stroke="#D6DCE5" stroke-width="0.224107"/>
<path d="M33.0222 15.1195L30.848 25.2831H28.2189L30.3935 15.1195H33.0222ZM44.0839 21.6822L45.4681 17.8654L46.2646 21.6822H44.0839ZM47.0173 25.2831H49.4492L47.3271 15.1195H45.0824C44.578 15.1195 44.1524 15.4129 43.963 15.8652L40.0185 25.2831H42.7795L43.3276 23.7654H46.7008L47.0173 25.2831ZM40.1555 21.9646C40.1668 19.2821 36.4459 19.1344 36.4716 17.9362C36.4794 17.5711 36.8271 17.1838 37.5866 17.0844C37.9639 17.0351 39.0013 16.9975 40.1793 17.5395L40.6406 15.3843C40.0079 15.1546 39.1937 14.9336 38.1811 14.9336C35.5825 14.9336 33.7534 16.3152 33.738 18.2936C33.7216 19.7566 35.0437 20.573 36.0399 21.0594C37.0642 21.5577 37.4084 21.8768 37.4039 22.3223C37.3971 23.0046 36.5868 23.3051 35.8308 23.317C34.5087 23.3379 33.7415 22.9602 33.13 22.6752L32.6536 24.9022C33.2677 25.1843 34.4016 25.4294 35.578 25.442C38.3396 25.442 40.1465 24.0774 40.1555 21.9646ZM29.2653 15.1195L25.0056 25.2831H22.226L20.1299 17.1719C20.0025 16.6723 19.8918 16.4896 19.5049 16.2789C18.8734 15.9363 17.8295 15.6143 16.9111 15.4148L16.9739 15.1195H21.4475C22.0175 15.1195 22.5306 15.4991 22.6599 16.1557L23.7671 22.0373L26.503 15.1195H29.2653Z" fill="#1434CB"/>
</g>
<defs>
<filter id="filter0_dd_521_2724" x="0.812081" y="0.295201" width="64.9911" height="48.4051" filterUnits="userSpaceOnUse" color-interpolation-filters="sRGB">
<feFlood flood-opacity="0" result="BackgroundImageFix"/>
<feColorMatrix in="SourceAlpha" type="matrix" values="0 0 0 0 0 0 0 0 0 0 0 0 0 0 0 0 0 0 127 0" result="hardAlpha"/>
<feOffset dy="0.448214"/>
<feGaussianBlur stdDeviation="2.24107"/>
<feColorMatrix type="matrix" values="0 0 0 0 0.717647 0 0 0 0 0.717647 0 0 0 0 0.717647 0 0 0 0.08 0"/>
<feBlend mode="normal" in2="BackgroundImageFix" result="effect1_dropShadow_521_2724"/>
<feColorMatrix in="SourceAlpha" type="matrix" values="0 0 0 0 0 0 0 0 0 0 0 0 0 0 0 0 0 0 127 0" result="hardAlpha"/>
<feOffset dy="4.48214"/>
<feGaussianBlur stdDeviation="4.48214"/>
<feColorMatrix type="matrix" values="0 0 0 0 0.717647 0 0 0 0 0.717647 0 0 0 0 0.717647 0 0 0 0.08 0"/>
<feBlend mode="normal" in2="effect1_dropShadow_521_2724" result="effect2_dropShadow_521_2724"/>
<feBlend mode="normal" in="SourceGraphic" in2="effect2_dropShadow_521_2724" result="shape"/>
</filter>
</defs>
</svg>
