<svg xmlns="http://www.w3.org/2000/svg"  viewBox="0 0 30 30" width="30px" height="30px"><path fill="#8bb7f0" d="M23.506,27.504H6.475c-2.194,0-3.972-1.778-3.972-3.972V6.5c0-2.194,1.778-3.972,3.972-3.972h17.031	c2.194,0,3.972,1.778,3.972,3.972v17.031C27.478,25.725,25.7,27.504,23.506,27.504z"/><path fill="#fff" d="M6.414,22.854c0,0,3.518-1.407,2.814-5.98l4.733,4.522C13.961,21.396,10.459,25.062,6.414,22.854z"/><path fill="#fff" d="M24.352,2.647H7.871C5.668,5.492,4.549,9.201,5.134,13.175c0.87,5.909,5.639,10.695,11.597,11.629	c3.919,0.614,7.591-0.385,10.459-2.422V5.456C27.19,3.911,25.913,2.647,24.352,2.647z"/><path fill="none" stroke="#4e7ab5" stroke-miterlimit="10" d="M23.512,27.504H6.503c-2.209,0-4-1.791-4-4V6.494	c0-2.209,1.791-4,4-4h17.01c2.209,0,4,1.791,4,4v17.01C27.512,25.713,25.721,27.504,23.512,27.504z"/><path fill="#8bb7f0" d="M23.484,16.002c-1.373,0-2.492-1.118-2.492-2.492s1.118-2.492,2.492-2.492	c1.373,0,2.492,1.118,2.492,2.492S24.858,16.002,23.484,16.002z M23.484,12.015c-0.824,0-1.495,0.671-1.495,1.495	s0.671,1.495,1.495,1.495s1.495-0.671,1.495-1.495S24.308,12.015,23.484,12.015z"/><path fill="#8bb7f0" d="M19.996,16.002h-0.664c-0.183,0-0.332-0.149-0.332-0.332v-5.648h0.997V16.002z"/><path fill="#8bb7f0" d="M17.006,11.185v0.345c-0.418-0.316-0.932-0.511-1.495-0.511c-1.373,0-2.492,1.118-2.492,2.492	s1.118,2.492,2.492,2.492c0.563,0,1.077-0.195,1.495-0.511v0.179c0,0.183,0.149,0.332,0.332,0.332h0.664v-4.818H17.006z M15.511,15.006c-0.824,0-1.495-0.671-1.495-1.495s0.671-1.495,1.495-1.495s1.495,0.671,1.495,1.495S16.334,15.006,15.511,15.006z"/><path fill="#8bb7f0" d="M13.185,10.022H7.869v0.997h3.536l-3.702,4.319H7.72c-0.108,0.14-0.183,0.308-0.183,0.498v0.166	h4.984c0.183,0,0.332-0.149,0.332-0.332v-0.664H9.317l3.702-4.319h-0.017c0.108-0.14,0.183-0.308,0.183-0.498V10.022z"/></svg>